<mxfile host="app.diagrams.net" agent="Mozilla/5.0 (X11; Linux x86_64; rv:142.0) Gecko/20100101 Firefox/142.0" version="28.2.0">
  <diagram name="Page-1" id="PuLOtIR65A3qIiVa_A3N">
    <mxGraphModel dx="377" dy="710" grid="1" gridSize="10" guides="1" tooltips="1" connect="1" arrows="1" fold="1" page="1" pageScale="1" pageWidth="827" pageHeight="1169" math="1" shadow="0">
      <root>
        <mxCell id="0" />
        <mxCell id="1" parent="0" />
        <mxCell id="iDlP_LBRREziJw6GV0ev-7" value="&lt;div&gt;$$1\ k\Omega$$&lt;/div&gt;" style="text;strokeColor=none;fillColor=none;html=1;align=center;verticalAlign=middle;whiteSpace=wrap;rounded=0;fontSize=12;" parent="1" vertex="1">
          <mxGeometry x="260" y="170" width="40" height="20" as="geometry" />
        </mxCell>
        <mxCell id="iDlP_LBRREziJw6GV0ev-8" value="$$1\ k\Omega$$" style="text;strokeColor=none;fillColor=none;html=1;align=center;verticalAlign=middle;whiteSpace=wrap;rounded=0;fontSize=12;" parent="1" vertex="1">
          <mxGeometry x="260" y="310" width="40" height="20" as="geometry" />
        </mxCell>
        <mxCell id="iDlP_LBRREziJw6GV0ev-10" value="&lt;div&gt;$$1\ k\Omega$$&lt;/div&gt;" style="text;strokeColor=none;fillColor=none;html=1;align=center;verticalAlign=middle;whiteSpace=wrap;rounded=0;fontSize=12;" parent="1" vertex="1">
          <mxGeometry x="390" y="240" width="40" height="20" as="geometry" />
        </mxCell>
        <mxCell id="iDlP_LBRREziJw6GV0ev-19" value="&lt;font style=&quot;font-size: 16px;&quot;&gt;+&lt;/font&gt;" style="text;strokeColor=none;fillColor=none;html=1;align=center;verticalAlign=middle;whiteSpace=wrap;rounded=0;fontSize=12;fontFamily=Helvetica;fontColor=default;labelBackgroundColor=default;" parent="1" vertex="1">
          <mxGeometry x="140" y="190" width="20" height="20" as="geometry" />
        </mxCell>
        <mxCell id="iDlP_LBRREziJw6GV0ev-20" value="&lt;font style=&quot;font-size: 20px;&quot;&gt;-&lt;/font&gt;" style="text;strokeColor=none;fillColor=none;html=1;align=center;verticalAlign=middle;whiteSpace=wrap;rounded=0;fontSize=12;fontFamily=Helvetica;fontColor=default;labelBackgroundColor=default;" parent="1" vertex="1">
          <mxGeometry x="140" y="240" width="20" height="20" as="geometry" />
        </mxCell>
        <mxCell id="uKpBhoUJDOv9A9Jneebp-4" value="R&lt;sub&gt;1&lt;/sub&gt;" style="pointerEvents=1;verticalLabelPosition=top;shadow=0;dashed=0;align=center;html=1;verticalAlign=bottom;shape=mxgraph.electrical.resistors.resistor_2;fontFamily=Helvetica;fontSize=11;fontColor=default;labelBackgroundColor=default;labelPosition=center;" parent="1" vertex="1">
          <mxGeometry x="230" y="150" width="100" height="20" as="geometry" />
        </mxCell>
        <mxCell id="uKpBhoUJDOv9A9Jneebp-16" value="R&lt;sub&gt;2&lt;/sub&gt;" style="pointerEvents=1;verticalLabelPosition=bottom;shadow=0;dashed=0;align=center;html=1;verticalAlign=top;shape=mxgraph.electrical.resistors.resistor_2;fontFamily=Helvetica;fontSize=11;fontColor=default;labelBackgroundColor=default;rotation=-90;textDirection=vertical-lr;" parent="1" vertex="1">
          <mxGeometry x="330" y="220" width="100" height="20" as="geometry" />
        </mxCell>
        <mxCell id="iDlP_LBRREziJw6GV0ev-3" value="R&lt;sub&gt;3&lt;/sub&gt;" style="pointerEvents=1;verticalLabelPosition=top;shadow=0;dashed=0;align=center;html=1;verticalAlign=bottom;shape=mxgraph.electrical.resistors.resistor_2;fontFamily=Helvetica;fontSize=11;fontColor=default;labelBackgroundColor=default;labelPosition=center;" parent="1" vertex="1">
          <mxGeometry x="230" y="290" width="100" height="20" as="geometry" />
        </mxCell>
        <mxCell id="iDlP_LBRREziJw6GV0ev-12" value="" style="edgeStyle=orthogonalEdgeStyle;orthogonalLoop=1;jettySize=auto;html=1;rounded=0;fontSize=12;startSize=8;endSize=8;endArrow=none;endFill=0;exitX=1;exitY=0.5;exitDx=0;exitDy=0;exitPerimeter=0;entryX=1;entryY=0.5;entryDx=0;entryDy=0;entryPerimeter=0;" parent="1" source="uKpBhoUJDOv9A9Jneebp-4" target="uKpBhoUJDOv9A9Jneebp-16" edge="1">
          <mxGeometry width="120" relative="1" as="geometry">
            <mxPoint x="490" y="330" as="sourcePoint" />
            <mxPoint x="610" y="330" as="targetPoint" />
          </mxGeometry>
        </mxCell>
        <mxCell id="iDlP_LBRREziJw6GV0ev-14" value="" style="edgeStyle=orthogonalEdgeStyle;orthogonalLoop=1;jettySize=auto;html=1;rounded=0;strokeColor=default;align=center;verticalAlign=middle;fontFamily=Helvetica;fontSize=12;fontColor=default;labelBackgroundColor=default;startSize=8;endArrow=none;endFill=0;endSize=8;exitX=0;exitY=0.5;exitDx=0;exitDy=0;exitPerimeter=0;entryX=1;entryY=0.5;entryDx=0;entryDy=0;entryPerimeter=0;" parent="1" source="uKpBhoUJDOv9A9Jneebp-16" target="iDlP_LBRREziJw6GV0ev-3" edge="1">
          <mxGeometry width="120" relative="1" as="geometry">
            <mxPoint x="490" y="330" as="sourcePoint" />
            <mxPoint x="610" y="330" as="targetPoint" />
            <Array as="points">
              <mxPoint x="380" y="300" />
            </Array>
          </mxGeometry>
        </mxCell>
        <mxCell id="jC3hIINoUNkoKDHipa8g-1" style="edgeStyle=orthogonalEdgeStyle;rounded=0;orthogonalLoop=1;jettySize=auto;html=1;exitX=1;exitY=0.5;exitDx=0;exitDy=0;fontSize=12;startSize=8;endSize=8;endArrow=none;endFill=0;entryX=0;entryY=0.5;entryDx=0;entryDy=0;entryPerimeter=0;" edge="1" parent="1" source="iDlP_LBRREziJw6GV0ev-16" target="uKpBhoUJDOv9A9Jneebp-4">
          <mxGeometry relative="1" as="geometry">
            <mxPoint x="220" y="160" as="targetPoint" />
            <Array as="points">
              <mxPoint x="180" y="160" />
            </Array>
          </mxGeometry>
        </mxCell>
        <mxCell id="jC3hIINoUNkoKDHipa8g-2" style="edgeStyle=orthogonalEdgeStyle;shape=connector;rounded=0;orthogonalLoop=1;jettySize=auto;html=1;exitX=0;exitY=0.5;exitDx=0;exitDy=0;strokeColor=default;align=center;verticalAlign=middle;fontFamily=Helvetica;fontSize=12;fontColor=default;labelBackgroundColor=default;startSize=8;endArrow=none;endFill=0;endSize=8;entryX=0;entryY=0.5;entryDx=0;entryDy=0;entryPerimeter=0;" edge="1" parent="1" source="iDlP_LBRREziJw6GV0ev-16" target="iDlP_LBRREziJw6GV0ev-3">
          <mxGeometry relative="1" as="geometry">
            <mxPoint x="220" y="300" as="targetPoint" />
            <Array as="points">
              <mxPoint x="180" y="300" />
            </Array>
          </mxGeometry>
        </mxCell>
        <mxCell id="iDlP_LBRREziJw6GV0ev-16" value="V&lt;sub&gt;S&lt;/sub&gt;" style="pointerEvents=1;verticalLabelPosition=bottom;shadow=0;dashed=0;align=center;html=1;verticalAlign=top;shape=mxgraph.electrical.miscellaneous.batteryStack;fontFamily=Helvetica;fontSize=12;fontColor=default;labelBackgroundColor=default;rotation=-90;textDirection=vertical-lr;" parent="1" vertex="1">
          <mxGeometry x="150" y="200" width="60" height="60" as="geometry" />
        </mxCell>
        <mxCell id="CjW4mLuFn372WD_gnURu-7" value="12 V" style="text;strokeColor=none;fillColor=none;html=1;align=center;verticalAlign=middle;whiteSpace=wrap;rounded=0;fontSize=12;" parent="1" vertex="1">
          <mxGeometry x="210" y="235" width="40" height="20" as="geometry" />
        </mxCell>
        <mxCell id="jC3hIINoUNkoKDHipa8g-4" value="A" style="text;html=1;align=center;verticalAlign=middle;whiteSpace=wrap;rounded=0;fontFamily=Helvetica;fontSize=12;fontColor=default;labelBackgroundColor=default;" vertex="1" parent="1">
          <mxGeometry x="160" y="140" width="20" height="20" as="geometry" />
        </mxCell>
        <mxCell id="jC3hIINoUNkoKDHipa8g-5" value="B" style="text;html=1;align=center;verticalAlign=middle;whiteSpace=wrap;rounded=0;fontFamily=Helvetica;fontSize=12;fontColor=default;labelBackgroundColor=default;" vertex="1" parent="1">
          <mxGeometry x="380" y="140" width="20" height="20" as="geometry" />
        </mxCell>
        <mxCell id="jC3hIINoUNkoKDHipa8g-6" value="C" style="text;html=1;align=center;verticalAlign=middle;whiteSpace=wrap;rounded=0;fontFamily=Helvetica;fontSize=12;fontColor=default;labelBackgroundColor=default;" vertex="1" parent="1">
          <mxGeometry x="380" y="300" width="20" height="20" as="geometry" />
        </mxCell>
        <mxCell id="jC3hIINoUNkoKDHipa8g-7" value="D" style="text;html=1;align=center;verticalAlign=middle;whiteSpace=wrap;rounded=0;fontFamily=Helvetica;fontSize=12;fontColor=default;labelBackgroundColor=default;" vertex="1" parent="1">
          <mxGeometry x="160" y="300" width="20" height="20" as="geometry" />
        </mxCell>
      </root>
    </mxGraphModel>
  </diagram>
</mxfile>
